<svg width="61" height="56" viewBox="0 0 61 56" fill="none" xmlns="http://www.w3.org/2000/svg">
<path d="M4.84282 42.3141L55.4906 42.5986C55.4906 42.5986 59.1232 41.6724 59.7649 37.612C60.4066 33.5516 62.1866 27.7819 59.0525 20.872C55.9184 13.9621 53.639 8.62017 45.9451 4.63047C38.2512 0.640769 34.7609 0 31.2706 0C27.7803 0 19.8019 1.28247 15.8131 3.70419C11.8243 6.12591 6.90928 10.6141 4.84282 13.9621C2.77636 17.3101 0.996339 20.4442 0.426249 24.1484C-0.143841 27.8526 0.022629 34.0417 0.022629 34.0417C0.022629 34.0417 0.338829 37.4771 1.05121 39.2339C1.76359 40.9907 2.72893 42.0834 4.84282 42.3131V42.3141Z" fill="#E8EEB0"/>
<path d="M27.4158 41.5069L26.5611 55.9749H25.6432L26.3397 44.9572L26.3481 42.5829L26.0868 41.8547L25.5009 41.0158L24.6146 39.9315L23.7516 39.1L22.5091 38.2212L20.5068 37.0578L18.7891 35.9892C18.7891 35.9892 17.7205 37.3823 17.1662 37.8734C16.7561 38.237 16.4278 38.4965 16.0791 38.7187C16.0102 38.7624 15.8819 38.8461 15.7015 38.9419C15.6224 38.9838 15.4374 39.0786 15.1835 39.1772C14.8663 39.3 14.6162 39.3604 14.3799 39.4162C14.0321 39.499 13.768 39.5381 13.5485 39.5706C13.2639 39.6125 12.9226 39.6617 12.4679 39.6776C12.1731 39.6878 11.9341 39.6804 11.789 39.6729C11.5174 39.6599 11.2756 39.6348 11.0673 39.606C10.7864 39.5706 10.5056 39.5343 10.2247 39.499C10.1066 39.6227 9.93827 39.7845 9.716 39.9501C9.65369 39.9966 9.37097 40.2309 8.92643 40.4132C8.30891 40.6662 8.11082 40.722 7.49423 40.8484C6.87671 40.9749 5.78489 40.8242 5.78489 40.8242C5.78489 40.8242 4.96184 40.6736 4.6289 40.5081C4.29596 40.3425 3.44966 39.8589 3.44966 39.8589L3.18833 39.6134C3.18833 39.6134 3.09347 39.2814 3.44129 39.4469C3.78911 39.6134 4.13786 39.8273 4.13786 39.8273C4.6754 40.0384 5.14784 40.137 5.49938 40.1872C5.9402 40.2504 6.77348 40.3602 7.76672 40.0682C8.3024 39.911 8.70881 39.6878 8.96549 39.526C8.96549 39.526 9.29006 39.273 8.80739 39.1065C8.32472 38.9401 7.53329 38.7104 7.53329 38.7104L6.36986 38.2909L5.39615 37.8948L4.54148 37.4437L4.2569 37.2066C4.2569 37.2066 3.68681 36.1854 4.66889 36.6839C5.65097 37.1824 6.05366 37.3963 6.05366 37.3963C6.05366 37.3963 6.8609 37.7125 7.10642 37.7766C7.35194 37.8399 8.14337 38.117 8.53862 38.1645C8.9348 38.2119 9.31424 38.3942 10.1057 38.5048C10.8971 38.6155 12.0847 38.9717 13.2007 38.782C14.3167 38.5923 15.1714 38.1728 15.1714 38.1728C15.1714 38.1728 16.1293 37.7218 16.6677 37.2549C17.2062 36.788 18.2664 35.7353 18.2664 35.7353L15.6466 34.0101C15.6466 34.0101 13.0984 32.5138 12.6074 32.3399C12.1163 32.166 10.3912 31.2638 10.3837 31.248C10.3754 31.2322 8.94317 32.404 8.23916 32.7993C7.14455 33.414 6.3401 33.6595 6.02297 33.7256C5.53937 33.8269 5.10227 33.853 4.96649 33.8604C4.46708 33.8864 4.03649 33.8558 3.70448 33.813C3.37061 33.7758 2.97257 33.7088 2.53268 33.587C2.31041 33.5256 2.01374 33.4419 1.64267 33.2782C1.17023 33.0699 0.813111 32.8346 0.586191 32.6849C0.398331 32.5612 0.0319116 32.3092 0.0319116 32.3092C0.0319116 32.3092 -0.18199 31.4229 0.51458 31.8339C1.37576 32.3427 2.24531 32.6942 2.42201 32.7677C2.98745 33.0039 3.51104 33.0541 3.79097 33.0885C4.16018 33.1332 4.45964 33.1369 4.6103 33.1359C4.97393 33.1332 5.25014 33.1006 5.34593 33.0885C5.65376 33.0494 5.86673 32.9964 6.21269 32.9109C6.75953 32.7742 7.03295 32.7063 7.35287 32.5705C7.69976 32.4236 7.93412 32.2729 8.19545 32.1036C8.5628 31.8656 9.05384 31.5084 9.58487 30.996C8.79809 30.4864 8.12849 30.079 7.60583 29.8484C6.99668 29.5796 4.47917 28.4394 4.47917 28.4394L2.04164 27.2676L0.648501 26.5711C0.648501 26.5711 -0.0396989 25.3286 1.36832 25.9694C2.77634 26.6101 7.4468 28.7473 7.4468 28.7473L11.3407 30.6705L13.9363 31.8972C14.0098 31.7568 14.1233 31.4973 14.1419 31.1532C14.1623 30.7793 14.0628 30.4892 13.9996 30.3404C13.9614 30.213 13.8991 30.027 13.7978 29.8121C13.6387 29.4764 13.4658 29.2411 13.3114 29.0328C13.2472 28.9463 13.1161 28.7882 12.852 28.4711C12.7487 28.3464 12.6297 28.2032 12.4716 28.02C12.4716 28.02 12.2623 27.7764 12.0754 27.569C11.5295 26.9617 10.579 26.2158 10.579 26.2158C9.6974 25.5239 8.93015 24.9203 7.77695 24.2331C6.99017 23.7634 6.29639 23.3142 4.77956 22.7079C3.94814 22.3758 2.86841 21.8234 2.86841 21.8234C2.86841 21.8234 2.16161 20.9334 3.3734 21.4496C4.58426 21.9657 6.60236 22.8567 6.60236 22.8567C7.86902 23.4714 8.879 24.0712 9.59975 24.5307C9.59975 24.5307 11.6365 25.841 13.7131 27.8666C13.7131 27.8666 14.0833 28.2283 14.5446 28.844C14.7036 29.057 14.8198 29.2309 14.9166 29.4615C14.9891 29.6326 15.0486 29.8307 15.0905 29.9684C15.1333 30.1079 15.1732 30.2539 15.1937 30.3404C15.23 30.491 15.4318 31.3243 15.0905 32.0823C15.07 32.1269 14.9379 32.4124 14.9379 32.4115L15.0077 32.2599C15.0077 32.2599 16.438 33.2568 17.1448 33.7023C17.8516 34.1478 22.0422 36.8485 22.0422 36.8485C22.0422 36.8485 22.404 36.7536 22.3631 35.8571C22.3212 34.9606 22.2505 33.4884 21.8292 32.5445C21.408 31.6005 20.6602 29.9033 19.7098 29.0839C18.7602 28.2646 14.8245 24.9519 14.6999 24.8868C14.5752 24.8217 14.0293 23.795 15.0914 24.5251C16.1544 25.2551 18.3445 26.6799 19.5907 27.8433C20.8369 29.0067 20.9327 29.149 21.6507 30.3841C22.3687 31.6191 23.0336 33.6902 23.0336 33.6902C23.0336 33.6902 23.241 35.0499 23.2596 35.8692C23.2782 36.6885 23.1173 37.2884 23.1173 37.2884C23.1173 37.2884 24.7494 38.7187 25.314 39.3065C25.8775 39.8942 26.5313 40.5769 26.5313 40.5769C26.5313 40.5769 26.7927 39.9175 26.8522 38.4574C26.9117 36.9973 27.2735 33.2931 27.226 31.7735C27.1786 30.2539 27.107 29.2095 27.107 29.2095C27.107 29.2095 27.0354 28.5445 25.4683 27.5708C23.9013 26.5971 18.3213 22.8929 18.3213 22.8929L14.1186 20.2099C13.6927 20.527 12.9403 20.9985 11.9108 21.1836C11.044 21.3398 10.3726 21.2226 9.39422 21.0534C8.66417 20.9269 7.81136 20.7725 6.78185 20.3057C6.2936 20.0834 5.08088 19.2055 4.24109 18.1685C3.83747 17.67 4.07462 17.1716 4.83443 17.8123C6.16247 18.933 7.28312 19.3431 8.11082 19.6881C8.33867 19.783 9.251 20.1485 10.473 20.1987C11.4198 20.2378 12.1442 20.0713 12.3925 20.009C12.745 19.9206 13.0361 19.8155 13.2509 19.7281C13.2509 19.7281 10.4851 17.6226 8.77484 16.2453C7.0655 14.868 6.6377 14.3453 6.6377 14.3453C6.6377 14.3453 6.28151 12.8257 7.30265 13.6571C8.32379 14.4885 12.7636 17.5984 12.7636 17.5984C12.7636 17.5984 19.6735 22.7032 19.7442 22.5851C19.8158 22.4661 20.1952 21.3742 20.1478 19.4742C20.1004 17.5743 19.839 15.438 19.6726 15.3422C19.5061 15.2474 18.8653 16.0305 15.9684 14.6066C13.0714 13.1819 11.8364 10.9024 11.8364 10.9024L11.3612 9.59671C11.3612 9.59671 11.5509 8.59975 12.121 9.71575C12.6911 10.8318 14.1865 12.8024 15.9675 13.5864C17.7484 14.3704 18.1167 14.4727 18.7891 14.5917C19.4615 14.7108 19.3908 14.5564 19.4224 14.5676C19.454 14.5796 19.1174 13.206 18.073 11.6706C17.0286 10.1352 16.0465 8.88433 15.3025 8.14033C14.5585 7.39633 13.941 6.88948 13.941 6.88948C13.941 6.88948 13.7987 5.97157 14.5269 6.4933C15.2551 7.01596 17.1709 8.5672 18.2943 10.3556C19.4178 12.144 20.3208 14.1704 20.5737 15.3106C20.8267 16.4508 21.1755 18.6828 21.2229 20.0592C21.2703 21.4365 20.8909 23.1301 20.8909 23.1301L25.592 26.6604L27.333 27.8005C27.333 27.8005 28.0454 27.9112 28.0612 29.1462C28.077 30.3813 27.412 41.5097 27.412 41.5097L27.4158 41.5069Z" fill="#5D7178"/>
<path d="M34.0011 55.9749H35.1087L34.2541 42.9307C34.2541 42.9307 34.5703 40.2076 36.2173 39.2265C37.8634 38.2453 42.4223 35.6172 42.4223 35.6172C42.4223 35.6172 42.8965 36.5211 44.007 37.0717C44.5157 37.3246 45.0439 37.4483 45.9683 37.4846C47.4182 37.5423 48.7583 37.3497 50.2463 36.9824C51.9222 36.5686 53.1926 36.0794 53.7887 35.8385C56.0849 34.9094 58.3159 33.6223 58.3159 33.6223L60.5954 32.4821C60.6186 32.4189 60.7953 31.926 60.6316 31.8107C60.5507 31.753 60.4159 31.8107 60.1248 31.9604C59.7556 32.1501 59.5714 32.2459 59.1753 32.4942C59.0181 32.5928 58.7224 32.7342 58.1309 33.0169C57.3088 33.4093 56.6615 33.6911 56.4922 33.7646C54.5922 34.5904 53.6418 35.0034 53.2037 35.154C53.2037 35.154 52.9703 35.234 50.5281 35.9334C49.7581 36.084 49.0857 36.1761 48.5379 36.2338C47.873 36.3044 47.368 36.3268 46.983 36.3444C46.6928 36.3574 46.5552 36.3593 46.4371 36.3593C45.9767 36.3574 45.6224 36.3565 45.2262 36.2691C44.8635 36.19 44.1316 36.0292 43.754 35.4265C43.6675 35.2889 43.621 35.1615 43.5959 35.0787L49.706 31.9446C49.706 31.9446 57.5896 28.272 58.2862 27.9558C58.9828 27.6396 59.1409 27.5438 59.1409 27.5438C59.1409 27.5438 59.6161 26.9105 58.9195 26.9421C58.2229 26.9737 50.5616 30.836 50.5616 30.836C50.5216 28.9593 51.1177 27.9214 51.4479 27.4601C51.8878 26.8463 52.8169 25.9145 53.1935 25.5722C53.2586 25.5136 53.5292 25.27 53.8817 24.9315C53.9794 24.8375 54.0872 24.7324 54.2974 24.5278C54.5178 24.313 54.6973 24.1372 54.8201 24.0173C54.9307 23.9438 55.1056 23.8285 55.3186 23.6853C55.8356 23.3374 55.8635 23.3086 56.0784 23.1747C56.2923 23.0417 56.4931 22.9282 56.814 22.7469C57.0632 22.6065 57.1497 22.5618 57.2892 22.4623C57.3859 22.3935 57.8249 22.0792 57.7738 21.9676C57.7254 21.8615 57.2558 21.9787 57.1228 22.0113C56.4392 22.1815 55.8273 22.4865 55.0805 22.9971C54.4471 23.4295 53.9933 23.821 53.6557 24.1131C53.4669 24.2758 53.1814 24.5381 52.6113 25.0626C52.4393 25.2207 52.1054 25.5285 51.685 25.9294C51.3493 26.2493 51.1819 26.4092 51.1029 26.4994C51.1029 26.4994 50.902 26.7292 50.3431 27.5559C50.3431 27.5559 49.6307 28.6366 49.5833 30.1562C49.5358 31.6758 49.5712 31.2601 49.5712 31.2601L39.5272 36.3295C39.5272 36.3295 38.7199 35.38 38.9413 34.1134C39.1626 32.8467 39.7801 31.4219 40.8413 30.4408C41.9024 29.4596 45.0049 27.7336 45.0049 27.7336C45.0049 27.7336 45.3211 26.7682 44.5296 27.1793C43.7382 27.5913 41.1416 29.2848 41.1416 29.2848C41.1416 29.2848 39.8592 30.1078 39.0677 31.5484C38.2763 32.989 38.1498 34.4295 38.1498 34.4295C38.1498 34.4295 38.0968 35.2786 38.3572 35.8245C38.6185 36.3705 38.8259 36.6857 38.8259 36.6857C38.8259 36.6857 36.2378 38.0863 35.3477 38.9177C34.4577 39.7491 34.1601 40.7935 34.1601 40.7935L33.7918 35.7595L33.2692 29.7991C33.2692 29.7991 33.2934 29.2653 33.8514 28.8607C34.4094 28.4562 38.4818 25.1919 38.4818 25.1919C38.4818 25.1919 39.064 26.3674 41.1175 26.3553C43.1718 26.3432 45.9135 25.6197 47.4098 24.6813C48.9062 23.7429 52.6578 21.2384 52.669 21.191C52.6811 21.1436 56.3016 18.1397 56.3016 18.1397C56.3016 18.1397 56.7173 16.7503 55.6608 17.5938C54.6043 18.4363 49.5823 22.188 49.5823 22.188C49.5823 22.188 45.854 24.3484 44.0618 24.8003C42.2688 25.2514 40.1912 25.3462 39.728 25.0738C39.2649 24.8003 39.2054 24.7529 39.2054 24.7529L43.515 21.7258L53.9273 14.3295C53.9273 14.3295 54.6043 13.0358 53.2865 13.8431C51.9687 14.6503 47.4805 17.7137 47.4805 17.7137L44.3818 19.8034C44.3818 19.8034 43.6461 18.6995 44.1083 17.1436C44.5715 15.5887 44.8561 14.6503 45.5452 13.8784C46.2343 13.1065 47.5512 11.8008 48.0618 11.5041C48.5723 11.2075 48.6793 10.3286 47.7651 10.8392C46.8509 11.3497 45.3434 12.2518 44.4645 13.9379C43.5857 15.624 43.1225 16.8349 43.2183 18.4735C43.3132 20.1122 43.3727 20.3019 43.3727 20.3019L43.3969 20.4321V20.5986L37.3063 24.9556L32.3438 29.123L33.0441 40.3425L34.002 55.9749H34.0011Z" fill="#5D7178"/>
<path d="M30.5266 27.0937C30.5266 27.0937 30.907 28.7798 31.7849 27.0937C32.6637 25.4076 36.035 18.7358 36.035 18.7358L38.8845 13.5836C39.1263 13.6924 39.5309 13.8394 40.0479 13.857C40.1837 13.8617 40.5957 13.8663 41.1267 13.6999C41.9247 13.4497 42.4641 12.9782 42.8147 12.6462C42.8147 12.6462 44.7584 10.8038 46.1748 7.90874C46.2138 7.82876 46.65 6.93503 46.65 6.93503C46.65 6.93503 46.318 6.12779 45.866 6.93503C45.415 7.74227 44.6077 9.57065 43.302 11.0187C41.9963 12.4667 40.9751 13.0368 40.5241 13.0842C40.073 13.1316 39.2416 12.9177 39.2416 12.9177L43.6108 5.05829C43.6108 5.05829 43.6349 3.49124 42.8984 4.84439C42.1628 6.19754 35.822 17.5714 35.822 17.5714C35.5811 17.1892 35.2473 16.5559 35.1096 15.7198C34.972 14.8828 35.0938 14.2355 35.2873 13.2618C35.4147 12.6183 35.6397 11.7227 36.0592 10.6839C36.7204 9.36326 37.3788 7.97756 38.1963 6.62534C38.8845 5.48516 40.0963 3.32477 40.0963 3.32477C40.0963 3.32477 40.0489 2.37524 39.3365 3.32477C38.6241 4.2743 36.2024 8.64344 36.2024 8.64344C36.2024 8.64344 34.9915 10.8513 34.5637 12.6564C34.1359 14.4606 33.8281 15.6956 34.1601 16.6452C34.4921 17.5947 35.2045 18.5452 35.2045 18.5452L35.2556 18.6121L33.1269 22.6288L31.132 26.4632C31.132 26.4632 30.348 25.881 29.8496 23.9103C29.3511 21.9397 28.7931 19.4938 28.7931 19.4938C29.1353 19.2892 30.5285 18.4233 31.132 17.2022C31.345 16.7707 31.5003 16.2639 31.5003 16.2639C31.5533 16.089 31.6686 15.6863 31.7728 14.8596C31.8537 14.2132 31.89 13.6971 31.8918 13.3427C31.9039 11.7162 31.8565 9.89987 31.8565 9.89987C31.983 9.9101 32.1355 9.91289 32.3075 9.8915C32.5819 9.85895 32.8042 9.7799 32.9604 9.70922C33.1352 9.63761 33.3752 9.52043 33.6291 9.32885C33.7844 9.2126 34.0308 8.99126 34.3731 8.52161C34.7693 7.97663 34.9599 7.49396 35.1329 7.06523C35.2845 6.68858 35.5207 6.09059 35.6314 5.28428C35.7048 4.75046 35.6909 4.29011 35.6639 3.36941L35.6193 2.21714C35.1645 1.61636 34.9729 1.50197 34.8892 1.54289C34.826 1.57358 34.8251 1.69448 34.8595 2.14646C34.9013 2.69795 34.9404 3.03926 34.9664 3.33407C34.9859 3.5582 35.0176 3.92741 35.0138 4.39055C35.012 4.60817 35.0101 4.91879 34.9664 5.2694C34.8585 6.13337 34.5581 6.77135 34.4121 7.0736C34.2559 7.39817 34.0178 7.82132 33.6598 8.27237C33.5147 8.45651 33.1659 8.84525 32.5791 9.04427C32.2517 9.15587 31.9597 9.16982 31.7598 9.16331C31.7598 9.16331 30.3945 1.64798 30.4541 1.64798C30.5136 1.64798 29.5399 0.412941 29.6942 1.81445C29.8486 3.21596 30.442 6.76484 30.442 6.76484L31.0241 10.1482C31.1739 11.3051 31.2241 12.2872 31.238 13.033C31.2539 13.9007 31.2604 14.3732 31.1553 15.0279C31.0121 15.9188 30.8558 16.8907 30.0988 17.6756C29.5799 18.2141 28.98 18.454 28.6145 18.5656L27.2251 12.808L26.0738 7.37027L24.9578 2.58542C24.9578 2.58542 24.1859 1.20809 24.3756 2.92952C24.5653 4.65095 25.3019 8.71133 25.3019 8.71133L26.6438 14.2318C26.1323 14.2281 25.3511 14.1481 24.5188 13.7454C22.5946 12.8145 21.9529 10.9071 21.8237 10.4923C21.5744 9.91475 21.38 9.3893 21.2303 8.93732C20.9718 8.15984 20.8248 7.55255 20.7793 7.35818C20.7067 7.05221 20.6602 6.80576 20.5654 6.31379C20.3868 5.381 20.2975 4.91414 20.2919 4.65188C20.2919 4.61282 20.2901 4.4882 20.2529 4.32917C20.1999 4.09946 20.1069 3.95159 20.0883 3.92183C20.0353 3.83906 19.8632 3.56936 19.7358 3.59633C19.5749 3.62981 19.5414 4.1162 19.5442 4.24826C19.5684 5.38844 19.9004 7.41863 20.2213 8.43884C20.6323 9.74735 21.3875 11.7478 22.311 13.033C22.6421 13.4934 22.9517 13.7984 23.1424 13.9714C23.4316 14.2346 23.8166 14.5778 24.4128 14.8261C24.7894 14.9833 25.0973 15.0391 25.5641 15.1228C26.1203 15.2232 26.3983 15.2102 26.4662 15.2055C26.5109 15.2027 26.8466 15.1813 26.8466 15.1813L28.449 21.616C28.6024 22.6139 28.9037 23.8741 29.5175 25.2374C29.8365 25.947 30.1862 26.5636 30.5266 27.0891V27.0937Z" fill="#5D7178"/>
</svg>
